%FSLAX52Y52*%
%MOMM*%
%TF.FileFunction,Plated,1,8,PTH*%
%TF.Part,Single*%
%LPD*%
%TA.AperFunction,Other,ComponentDrill*%
%ADD11C,2.000*%
G01*
D11*
X282.76Y139.88D03*
X101.28Y169.09D03*
X371.89Y465.96D03*
X610.10Y464.12D03*
X63.76Y539.21D03*
X208.81Y61.68D03*
X289.76Y263.68D03*
X528.26Y453.05D03*
X117.82Y517.43D03*
X416.05Y29.62D03*
X334.82Y174.62D03*
X495.92Y400.21D03*
X430.92Y218.41D03*
X181.31Y64.35D03*
X114.60Y117.61D03*
X595.87Y397.35D03*
X257.49Y57.15D03*
X566.44Y629.38D03*
X523.11Y536.54D03*
X453.50Y586.87D03*
X435.75Y22.31D03*
X 8.55Y85.51D03*
X285.99Y536.81D03*
X538.56Y403.81D03*
X414.24Y314.61D03*
X433.43Y109.06D03*
X489.23Y289.35D03*
X509.27Y280.15D03*
X507.76Y50.57D03*
X344.50Y622.36D03*
X168.18Y300.38D03*
X379.71Y425.67D03*
X357.53Y306.15D03*
X415.06Y240.64D03*
X202.69Y228.56D03*
X187.51Y638.45D03*
X250.87Y196.06D03*
X83.96Y536.86D03*
X92.87Y622.52D03*
X300.67Y507.10D03*
X297.13Y94.10D03*
X616.16Y146.36D03*
X383.46Y485.43D03*
X426.51Y251.22D03*
X536.00Y131.02D03*
X233.58Y64.18D03*
X431.39Y613.29D03*
X489.85Y148.92D03*
X279.45Y264.91D03*
X389.55Y482.14D03*
X493.47Y577.06D03*
X480.59Y104.34D03*
X133.12Y564.55D03*
X 1.20Y225.99D03*
X547.07Y301.87D03*
X93.09Y204.21D03*
X395.97Y69.26D03*
X350.57Y139.43D03*
X554.69Y137.09D03*
X390.65Y450.69D03*
X268.10Y624.23D03*
X514.87Y59.50D03*
X597.52Y364.73D03*
X208.41Y236.97D03*
M02*
